<svg width="35" height="35" viewBox="0 0 35 35" fill="none" xmlns="http://www.w3.org/2000/svg">
<g id="Frame" clip-path="url(#clip0_2_140)">
<path id="Vector" d="M5.12971 26.3971V7.4993C5.12971 6.38553 5.57215 5.31737 6.35971 4.52981C7.14727 3.74225 8.21543 3.2998 9.32921 3.2998H28.9269C29.2981 3.2998 29.6542 3.44729 29.9167 3.70981C30.1792 3.97233 30.3267 4.32838 30.3267 4.69964V29.8966C30.3267 30.2679 30.1792 30.624 29.9167 30.8865C29.6542 31.149 29.2981 31.2965 28.9269 31.2965H10.0291C8.72972 31.2965 7.48353 30.7803 6.56471 29.8615C5.64589 28.9426 5.12971 27.6965 5.12971 26.3971ZM27.527 28.4968V24.2973H10.0291C9.47224 24.2973 8.93816 24.5185 8.54438 24.9123C8.1506 25.3061 7.92937 25.8402 7.92937 26.3971C7.92937 26.9539 8.1506 27.488 8.54438 27.8818C8.93816 28.2756 9.47224 28.4968 10.0291 28.4968H27.527ZM7.92937 21.9694C8.58546 21.6578 9.30282 21.4967 10.0291 21.4976H27.527V6.09947H9.32921C8.95795 6.09947 8.6019 6.24695 8.33938 6.50947C8.07686 6.77199 7.92937 7.12805 7.92937 7.4993V21.9694Z" fill="white"/>
</g>
<defs>
<clipPath id="clip0_2_140">
<rect width="33.596" height="33.596" fill="white" transform="translate(0.930237 0.500244)"/>
</clipPath>
</defs>
</svg>
